<svg xmlns="http://www.w3.org/2000/svg" width="256" height="256"><path fill-opacity=".016" d="M0 128.004v128.004l128.25-.254 128.25-.254.254-127.75L257.008 0H0v128.004m.485.496c0 70.4.119 99.053.265 63.672.146-35.38.146-92.98 0-128C.604 29.153.485 58.1.485 128.5" fill="#1976D2" fill-rule="evenodd"/><path fill-opacity=".247" d="M45.645 1.584C25.399 6.485 6.342 25.72 1.537 46.103c-2.248 9.539-2.248 154.255 0 163.794 4.864 20.633 23.933 39.702 44.566 44.566 9.539 2.248 154.255 2.248 163.794 0 16.145-3.806 32.19-16.764 39.876-32.204 2.256-4.532 4.407-10.275 4.78-12.762.373-2.487 1.076-4.768 1.562-5.068.501-.31.885-33.988.885-77.547 0-44.603-.374-76.769-.888-76.451-.488.302-1.192-1.476-1.563-3.951-.371-2.474-2.52-8.207-4.776-12.739-7.686-15.44-23.731-28.398-39.876-32.204C200.698-.631 54.624-.59 45.645 1.584M66.558 31.25c-.264 1.237-1.409 11.25-2.546 22.25-1.136 11-2.216 21.013-2.4 22.25-.195 1.309.187 2.25.911 2.25.762 0 1.516-2.159 1.941-5.557.689-5.517.718-5.556 3.865-5.25 3.075.298 3.18.466 3.473 5.557.218 3.777.709 5.25 1.75 5.25.797 0 1.444-.787 1.44-1.75-.02-4.14-4.887-45.271-5.469-46.212-1.071-1.734-2.457-1.167-2.965 1.212m56.832-.824c-.328.854-.423 10.67-.211 21.813.32 16.853.678 20.808 2.129 23.511 2.149 4.005 5.012 4.217 7.419.547 1.536-2.341 1.816-5.683 2.092-25 .219-15.353-.014-22.297-.75-22.297-.717 0-1.071 5.68-1.075 17.25-.005 17.686-1.006 24.75-3.506 24.75-2.869 0-3.488-3.97-3.488-22.375 0-11.346-.39-18.748-1.007-19.129-.554-.343-1.275.076-1.603.93m16.249-.732c-.351.352-.639 11.364-.639 24.473 0 20.518.209 23.833 1.5 23.833 1.292 0 1.5-3.327 1.5-23.941 0-21.727-.441-26.284-2.361-24.365M146 53.5V78h4c3.89 0 4-.094 4-3.434 0-3.002-.345-3.473-2.75-3.75l-2.75-.316-.27-20.75c-.166-12.696-.651-20.75-1.25-20.75-.613 0-.98 9.172-.98 24.5M78 54c0 15.333.361 24 1 24 .588 0 1-3.5 1-8.5 0-7.796.163-8.5 1.974-8.5 3.468 0 5.383-5.439 5.458-15.5.089-11.767-1.369-15.5-6.053-15.5H78v24m13 0c0 15.333.361 24 1 24 .583 0 1-3.315 1-7.945 0-7.683.091-7.989 2.75-9.262 3.611-1.727 5.505-8.75 4.934-18.293-.573-9.575-2.057-12.5-6.345-12.5H91v24m18.473-22.791c-.282.735-.391 11.451-.243 23.814l.27 22.477h3.5c3 0 3.75-.5 5.248-3.5 2.123-4.249 2.341-14.656.404-19.29-.796-1.905-1.029-4.042-.57-5.218 1.242-3.182 1.005-13.761-.37-16.492-1.433-2.848-7.34-4.132-8.239-1.791M156 54.06v24.061l3.701-.311c3.02-.253 4.078-.954 5.75-3.81 1.841-3.145 2.049-5.174 2.049-20 0-14.091-.272-17.048-1.864-20.25-1.675-3.37-2.257-3.75-5.75-3.75H156v24.06m16-.06v24h4c3.905 0 4-.083 4-3.5 0-3.233-.232-3.5-3.044-3.5h-3.044l.294-7.25c.275-6.792.436-7.245 2.544-7.171 1.955.069 2.25-.422 2.25-3.75 0-3.418-.269-3.829-2.5-3.829-2.389 0-2.5-.267-2.5-6v-6h3c2.762 0 3-.278 3-3.5 0-3.417-.095-3.5-4-3.5h-4v24m12 0c0 15.333.361 24 1 24 .6 0 1-4 1-10 0-9.663.835-12.081 2.85-8.25.506.962 1.22 4.225 1.588 7.25 1.083 8.918 1.648 11 2.987 11 1.016 0 1.001-1.924-.076-9.75-.739-5.362-1.524-10.232-1.746-10.821-.221-.589.256-3.514 1.061-6.5 1.55-5.748 1.198-15.451-.689-18.975-.728-1.361-2.096-1.954-4.51-1.954H184v24m-71.402-17.264c-.329.328-.598 3.48-.598 7.004 0 5.459.248 6.359 1.678 6.083 2.094-.403 3.491-5.295 2.713-9.504-.559-3.027-2.508-4.868-3.793-3.583M80 45.5c0 6.798.293 8.5 1.465 8.5C83.68 54 85 50.694 85 45.148 85 38.877 84.284 37 81.893 37 80.184 37 80 37.827 80 45.5m13 0c0 6.798.293 8.5 1.465 8.5C96.68 54 98 50.694 98 45.148 98 38.877 97.284 37 94.893 37 93.184 37 93 37.827 93 45.5m66 8.5c0 14.327.232 17 1.477 17 .812 0 2.275-1.218 3.25-2.706 2.586-3.947 2.586-24.641 0-28.588-.975-1.488-2.438-2.706-3.25-2.706-1.245 0-1.477 2.673-1.477 17m27-10c0 5.077.357 7 1.3 7 2.382 0 3.7-2.357 3.7-6.618 0-5.507-.789-7.382-3.107-7.382-1.677 0-1.893.799-1.893 7M67.863 40.5c-.35.55-.96 5.163-1.356 10.25-.691 8.889-.639 9.25 1.328 9.25 1.126 0 2.207-.337 2.403-.75.627-1.32-1.712-19.79-2.375-18.75M.476 128c0 42.625.123 60.063.274 38.75.15-21.312.15-56.187 0-77.5C.599 67.938.476 85.375.476 128M112 64c0 6.832.097 7.125 2.25 6.82 2.07-.294 2.25-.841 2.25-6.82s-.18-6.526-2.25-6.82c-2.153-.305-2.25-.012-2.25 6.82M82.2 91.2c-.77.77-1.2 4.711-1.2 11 0 8.044-.269 9.8-1.5 9.8-1.149 0-1.5-1.27-1.5-5.427 0-4.664-.369-5.718-2.618-7.487-2.647-2.082-3.472-1.993-6.632.721-1.325 1.138-1.75 3.044-1.75 7.848 0 4.872-.336 6.345-1.448 6.345-1.037 0-1.533-1.46-1.75-5.147-.341-5.818-2.454-8.192-5.552-6.24-1.514.953-1.787 3.071-2.027 15.719l-.276 14.617 2.681.673c4.2 1.054 5.833-.658 6.174-6.475.217-3.687.713-5.147 1.75-5.147 1.114 0 1.448 1.484 1.448 6.429 0 8.766 2.713 11.562 7.777 8.014 1.873-1.311 2.223-2.492 2.223-7.5 0-10.237 1.914-6.515 2.215 4.307.265 9.536.442 10.319 2.535 11.237 1.237.543 2.242 1.443 2.232 2-.009.557-1.426 5.288-3.148 10.513-2.926 8.88-3.146 10.563-3.364 25.776-.267 18.646-.585 17.941 9.404 20.865 2.956.865 6.839 2.437 8.628 3.493 4.535 2.675 21.519 6.843 30.498 7.483 6.714.479 14.349-.454 26.109-3.189 2.429-.565 2.692-.275 3.826 4.232 1.725 6.857 6.53 15.424 11.647 20.765l4.384 4.575H200v-78.258l-4.955.658c-2.725.361-6.861 1.33-9.191 2.152-3.854 1.359-4.558 1.338-7.795-.231-1.958-.948-6.559-1.907-10.225-2.131-8.237-.502-14.654 1.464-21.976 6.731l-5.299 3.813-2.718-2.01c-4.1-3.031-12.315-2.748-18.364.633-2.601 1.454-4.86 2.643-5.02 2.643-.16 0-.796-2.356-1.414-5.235-.617-2.879-1.998-6.718-3.067-8.531l-1.945-3.296 3.219-13.033c3.026-12.247 3.419-13.156 6.536-15.082 1.824-1.127 4.02-3.123 4.88-4.436.925-1.412 2.539-2.387 3.949-2.387 2.359 0 2.385.112 2.385 10.3 0 10.826.664 12.7 4.5 12.7s4.5-1.874 4.5-12.7c0-9.633.129-10.3 2-10.3 1.772 0 2 .667 2 5.845 0 6.857 2.301 10.135 5.799 8.262 2.603-1.392 3.201-3.204 3.201-9.689 0-4.751.246-5.418 2-5.418 1.722 0 2 .667 2 4.8 0 6.647 2.884 9.173 6.429 5.629 1.26-1.261 1.571-4.041 1.571-14.066 0-12.998-.805-16.363-3.913-16.363-2.498 0-4.069 2.113-4.766 6.411-.321 1.974-.918 3.589-1.327 3.589-.915 0-1.994-5.126-1.994-9.47 0-3.078-2.461-6.53-4.654-6.53-.549 0-1.976 1.042-3.172 2.314-1.713 1.825-2.174 3.537-2.174 8.084 0 4.169-.347 5.654-1.25 5.354-.853-.282-1.342-3.392-1.54-9.779-.296-9.566-1.136-11.973-4.177-11.973-3.787 0-5.033 3.176-5.033 12.829 0 8.504-.145 9.171-2 9.171-1.642 0-2.003-.672-2.015-3.75-.024-5.707-1.095-6.666-7.68-6.875-3.193-.102-6.327.244-6.966.769-.74.608-1.384.592-1.778-.045-.679-1.099-12.53-.854-14.393.297-.642.397-1.168 2.72-1.168 5.163 0 3.774-.3 4.441-2 4.441-1.864 0-2-.667-2-9.8 0-9.962-.734-12.2-4-12.2-.88 0-2.14.54-2.8 1.2m7.881 36.55l.081 4.75 1.374-3c1.822-3.978 1.807-6.5-.036-6.5-1.134 0-1.48 1.158-1.419 4.75" fill="#1976D2" fill-rule="evenodd"/><path fill-opacity=".555" d="M48.5 1.458C26.676 6.314 10.781 20.413 3.314 41.538L.5 49.5v157l2.769 7.828c6.662 18.832 19.537 31.737 38.269 38.358L49.5 255.5h157l7.962-2.814c18.687-6.605 31.908-19.831 38.019-38.034 1.385-4.128 2.519-8.636 2.519-10.019 0-1.383.45-2.793 1-3.133.652-.403 1-26.363 1-74.618 0-49.079-.337-73.792-1-73.382-.57.352-1-.514-1-2.015 0-4.798-5.062-17.81-9.563-24.579-7.471-11.239-17.412-18.791-31.109-23.637L206.5.5l-76-.188c-60.269-.15-77.242.087-82 1.146m18.107 28.369c-1.224 1.981-5.577 47.603-4.631 48.549 1.513 1.513 2.166.249 2.875-5.561.589-4.822.897-5.344 3.32-5.624 2.543-.294 2.704-.042 3.367 5.263.687 5.503 1.895 7.59 3.418 5.909.554-.611-4.005-46.575-4.871-49.113-.214-.627-3.021-.162-3.478.577m10.895 1.362c-.312 1.271-.44 12.436-.284 24.811.241 19.208.501 22.5 1.782 22.5 1.194 0 1.558-1.741 1.786-8.528.258-7.704.499-8.622 2.5-9.5 3.07-1.348 4.591-6.565 4.656-15.972.07-10.267-1.924-14.853-6.658-15.311-2.658-.257-3.314.09-3.782 2m13 0c-.312 1.271-.44 12.436-.284 24.811.241 19.208.501 22.5 1.782 22.5 1.195 0 1.558-1.755 1.787-8.643.254-7.637.518-8.703 2.264-9.16 3.125-.817 4.949-6.686 4.947-15.915-.002-10.573-1.965-15.134-6.714-15.593-2.658-.257-3.314.09-3.782 2m19.165-1.522c-.367.366-.667 11.405-.667 24.531 0 25.88-.023 25.778 5.484 24.395 4.343-1.09 5.787-5.603 5.112-15.976-.756-11.643-.77-12.161-.554-21.123.215-8.953-1.457-12.494-5.898-12.494-1.546 0-3.111.3-3.477.667m13.514 21.63c.276 19.317.556 22.659 2.092 25 2.102 3.204 5.71 3.562 7.472.74 2.198-3.519 3.325-15.225 3.037-31.537-.237-13.43-.523-16-1.782-16-1.266 0-1.578 3.078-2 19.703-.511 20.143-1.277 23.917-4.25 20.949-.893-.892-1.343-6.945-1.575-21.2C125.9 32.066 125.62 29 124.356 29c-1.29 0-1.45 3.044-1.175 22.297M139 54c0 21.556.207 25 1.5 25s1.5-3.444 1.5-25-.207-25-1.5-25-1.5 3.444-1.5 25m6.688-24.354c-.992.992-.819 46.599.182 48.178.505.797 2.193 1.195 4.235 1 3.219-.307 3.411-.544 3.702-4.574.287-3.964.137-4.25-2.229-4.25h-2.537l-.27-20.167c-.255-18.999-.787-22.483-3.083-20.187M156 53.531c0 26.665-.048 26.451 5.575 25.04 1.826-.459 3.182-2.01 4.684-5.358 1.802-4.015 2.124-6.711 2.178-18.213.092-19.604-2.285-26-9.66-26H156v24.531m15.45-23.26c-.269.699-.367 11.836-.219 24.75L171.5 78.5h4.5c4.476 0 4.5-.019 4.5-3.5 0-3.075-.334-3.538-2.75-3.816-2.702-.311-2.75-.436-2.75-7.181 0-6.357.166-6.888 2.25-7.183 1.844-.262 2.25-.952 2.25-3.82s-.406-3.558-2.25-3.82c-2.044-.29-2.25-.861-2.25-6.25 0-5.678.107-5.93 2.531-5.93 2.902 0 3.961-1.905 3.058-5.502-.538-2.145-1.195-2.498-4.639-2.498-2.323 0-4.218.535-4.5 1.271m12 0c-.269.699-.367 11.836-.219 24.75.23 20.084.486 23.479 1.769 23.479 1.206 0 1.6-2.06 2.011-10.5.588-12.088 1.626-11.537 3.394 1.799.857 6.469 1.53 8.701 2.624 8.701 1.772 0 1.613-7.529-.361-17.072-1.045-5.052-1.02-6.648.148-9.5 1.995-4.872 1.164-18.188-1.305-20.916-2.029-2.242-7.299-2.727-8.061-.741M81 45.385c0 7.066.252 8.455 1.452 7.995 3.178-1.22 2.992-15.065-.217-16.135-.916-.305-1.235 1.798-1.235 8.14m13 .115c0 6.487.314 8.563 1.25 8.253 3.237-1.072 3.237-15.45 0-16.51-.935-.307-1.25 1.772-1.25 8.257m18-2.632c0 3.308.399 6.261.887 6.562 1.785 1.103 3.222-2.386 2.921-7.093-.233-3.645-.734-4.9-2.058-5.151-1.51-.287-1.75.494-1.75 5.682m47 10.573c0 9.043.359 16.663.798 16.934.439.271 1.31.176 1.937-.211 2.248-1.389 3.265-6.456 3.265-16.261C165 43.299 163.342 37 160.551 37 159.213 37 159 39.253 159 53.441M187 44c0 5.243.332 7.056 1.235 6.755 3.221-1.074 3.221-12.436 0-13.51C187.332 36.944 187 38.757 187 44M67.581 45.148c-.301 1.844-.668 5.776-.814 8.74-.227 4.57.011 5.431 1.566 5.673 1.704.266 1.784-.327 1.13-8.387-.387-4.771-.846-8.832-1.019-9.026-.173-.194-.562 1.156-.863 3M.475 128c0 40.975.124 57.738.275 37.25.151-20.488.151-54.012 0-74.5S.475 87.025.475 128M112 64c0 5.077.357 7 1.3 7 2.435 0 3.7-2.393 3.7-7s-1.265-7-3.7-7c-.943 0-1.3 1.923-1.3 7m19.223 26.557c-2.044 1.431-2.223 2.358-2.223 11.5 0 7.817-.297 9.943-1.389 9.943-.82 0-1.661-1.536-2.053-3.75-1.324-7.469-.884-7.15-9.86-7.156-4.509-.003-9.098-.017-10.198-.032-11.615-.154-12.5.31-12.5 6.56 0 3.225-.395 4.378-1.5 4.378-1.226 0-1.5-1.705-1.5-9.345 0-7.783-.306-9.622-1.829-11-2.377-2.151-4.462-2.095-6.516.174-1.291 1.426-1.658 3.902-1.67 11.25-.011 6.452-.321 8.948-.985 7.921-.533-.825-.976-3.612-.985-6.193-.012-3.706-.483-5.021-2.238-6.25-2.937-2.058-4.37-1.964-6.777.443-1.551 1.551-2 3.333-2 7.941 0 3.268-.45 6.219-1 6.559-.605.374-1-1.012-1-3.507 0-7.046-3.504-10.657-7.145-7.362-1.643 1.487-1.855 3.322-1.855 16.045 0 14.15.036 14.383 2.374 15.448 4.225 1.925 6.626-.307 6.626-6.159 0-3.677.377-4.965 1.454-4.965 1.097 0 1.527 1.633 1.75 6.646.342 7.671 1.811 9.435 6.493 7.795 2.615-.915 2.823-1.399 3.101-7.211.47-9.831 2.202-7.316 2.202 3.197 0 8.806.161 9.554 2.443 11.349l2.443 1.922-2.905 9.032c-4.03 12.531-5.162 20.459-3.974 27.832.611 3.792.623 7.243.032 9.301-1.356 4.728.118 7.582 4.903 9.497 2.254.902 4.568 1.64 5.141 1.64.574 0 3.827 1.341 7.23 2.98 8.648 4.166 20.519 7.055 31.724 7.721 8.954.532 10.896.316 27.273-3.029.464-.094 1.654 2.394 2.644 5.53 2.255 7.144 6.19 13.914 11.325 19.485l3.976 4.313H200v-78.81l-4.25.539c-2.338.297-6.446 1.358-9.131 2.359-4.747 1.769-4.983 1.767-8.605-.081-9.111-4.648-21.342-3.048-31.594 4.134l-5.505 3.856-4.147-2.115c-5.214-2.661-12.055-2.076-18.26 1.561l-4.288 2.512-.652-4.348c-.358-2.392-1.533-6.077-2.61-8.189-2.488-4.88-2.493-4.769.908-18.242 2.767-10.966 3.013-11.463 7.746-15.706 2.688-2.409 5.901-4.401 7.138-4.425 2.183-.044 2.25.245 2.25 9.755 0 10.305.699 12.2 4.5 12.2s4.5-1.895 4.5-12.2c0-9.133.136-9.8 2-9.8 1.77 0 2 .667 2 5.8 0 5.924 1.123 8.2 4.045 8.2 3.171 0 4.955-3.359 4.955-9.329 0-4.951.247-5.671 1.945-5.671 1.604 0 1.999.815 2.25 4.648.348 5.31 2.578 7.614 5.555 5.74 1.505-.948 1.789-3.035 2.029-14.884.239-11.775.034-14.053-1.405-15.643-2.13-2.354-2.901-2.334-5.374.139-1.238 1.238-2 3.333-2 5.5 0 1.925-.45 3.5-1 3.5-.551 0-1-2.592-1-5.777C152 99.554 150.088 96 146.5 96s-5.5 3.554-5.5 10.223c0 3.185-.449 5.777-1 5.777-.596 0-1-3.833-1-9.5 0-8.167-.281-9.781-2-11.5-2.408-2.408-2.917-2.447-5.777-.443M90.03 127.75c.032 3.836.96 3.26 2.416-1.5.511-1.669.284-2.25-.879-2.25-1.15 0-1.559.999-1.537 3.75" fill="#1976D2" fill-rule="evenodd"/><path fill-opacity=".358" d="M52.381.976C29.269 4.469 10.837 20.014 3.239 42.422L.5 50.5v155l2.739 8.078c6.436 18.98 20.203 32.747 39.183 39.183L50.5 255.5h155l8.078-2.739c13.804-4.681 24.784-13.164 32.595-25.183 4.174-6.422 8.827-19.638 8.827-25.071 0-1.864.45-3.667 1-4.007.651-.403 1-25.363 1-71.618 0-47.079-.337-70.792-1-70.382-.594.367-1-.806-1-2.889 0-5.537-4.616-18.71-8.827-25.189-7.816-12.027-18.806-20.514-32.595-25.173L205.5.52l-74-.159C90.8.274 55.197.55 52.381.976M65.596 32.75C64.655 38.842 61 73.635 61 76.506c0 1.975.441 2.557 1.75 2.309 1.302-.247 1.878-1.61 2.25-5.324.456-4.556.74-5.019 3.25-5.307 2.335-.269 2.75.051 2.75 2.125C71 75.615 72.217 79 74.125 79c1.031 0 1.875-.363 1.875-.806 0-2.309-5.098-46.88-5.484-47.944-.249-.687-1.328-1.25-2.397-1.25-1.476 0-2.083.902-2.523 3.75m12.071-3.083c-.367.366-.667 11.616-.667 25C77 78.333 77.055 79 79 79c1.842 0 2-.667 2-8.433 0-7.555.208-8.498 2.001-9.067 2.778-.882 4.105-3.784 4.984-10.9.945-7.649-.297-17.183-2.566-19.689-1.672-1.849-6.391-2.606-7.752-1.244m12.783.604c-.269.699-.367 11.83-.219 24.737.246 21.429.421 23.495 2.019 23.802 1.555.299 1.75-.605 1.75-8.12 0-7.634.196-8.508 2.013-8.983 6.274-1.641 7.581-27.94 1.587-31.942-1.803-1.204-6.625-.863-7.15.506M109 54.06v25.061l3.651-.311c5.968-.507 7.849-4.036 7.849-14.73 0-5.433-.464-9.332-1.22-10.243-.923-1.111-.955-2.429-.134-5.403 1.457-5.275.499-15.064-1.713-17.508-1.059-1.17-3.056-1.926-5.088-1.926H109v25.06m13.333-23.487c-.332.866-.381 10.428-.11 21.25.529 21.076 1.613 26.355 5.677 27.645 2.651.842 3.701.163 5.851-3.781 1.464-2.685 1.791-6.61 2.078-24.937.336-21.486.315-21.75-1.744-21.75-2.038 0-2.085.417-2.085 18.435 0 10.355-.456 19.635-1.041 21.173-.965 2.538-1.161 2.619-2.682 1.098-1.375-1.375-1.713-4.804-2.088-21.173-.364-15.876-.71-19.533-1.85-19.533-.771 0-1.673.708-2.006 1.573m16.293-.04c-.805 2.097-.822 44.792-.019 46.885.894 2.33 3.271 1.924 3.906-.668.304-1.237.425-12.369.269-24.737-.248-19.817-.475-22.524-1.906-22.799-.893-.172-1.906.422-2.25 1.319m6.607 23.217l.267 24.75 4.25.307 4.25.308v-4.558c0-4.194-.199-4.557-2.5-4.557H149V49.5c0-19.893-.06-20.5-2.017-20.5-1.977 0-2.012.507-1.75 24.75m10.374-23.168c-.792 2.063-.792 44.773 0 46.836.385 1.003 1.822 1.582 3.927 1.582 6.563 0 9.466-7.667 9.466-25s-2.903-25-9.466-25c-2.105 0-3.542.579-3.927 1.582m15.626 23.168l.267 24.75 4.81.307 4.811.308-.311-4.308c-.278-3.864-.593-4.34-3.06-4.623-2.682-.309-2.75-.475-2.75-6.75 0-6.196.092-6.434 2.5-6.434 2.25 0 2.5-.4 2.5-4s-.25-4-2.5-4c-2.379 0-2.5-.281-2.5-5.789 0-5.659.062-5.789 2.75-5.75 2.528.036 2.775-.304 3.057-4.211l.308-4.25h-10.15l.268 24.75m11.767.323c0 23.34.121 25.051 1.75 24.74 1.486-.284 1.825-1.84 2.25-10.323.275-5.495.817-9.503 1.205-8.908.388.595 1.234 5.207 1.881 10.25 1.04 8.107 1.407 9.168 3.174 9.168 1.879 0 1.956-.434 1.294-7.25-.387-3.988-1.151-9.359-1.698-11.936-.686-3.231-.662-5.307.075-6.685 1.654-3.09 1.339-17.707-.457-21.179-1.301-2.516-2.11-2.95-5.5-2.95H183v25.073M81 44.961c0 6.118.318 8.101 1.25 7.793 1.982-.655 2.229-13.112.292-14.719C81.174 36.899 81 37.681 81 44.961m13 .154c0 5.995.319 7.946 1.25 7.638.803-.265 1.354-2.931 1.541-7.46.232-5.612-.022-7.168-1.25-7.639-1.309-.502-1.541.618-1.541 7.461M113 43c0 5.742 1.103 7.779 2.393 4.418.781-2.034.781-6.802 0-8.836C114.103 35.221 113 37.258 113 43m74 1.039c0 6.385.176 7.06 1.545 5.924 1.91-1.585 1.667-12.07-.295-12.717-.923-.305-1.25 1.475-1.25 6.793m-28 10.034c0 14.77.142 16.046 1.75 15.737 3.03-.584 4.478-7.272 3.963-18.31-.528-11.344-1.139-13.5-3.82-13.5-1.779 0-1.893.969-1.893 16.073m-91.467-4.415a694.788 694.788 0 01-.936 7.092c-.227 1.596.188 2.25 1.427 2.25 1.54 0 1.685-.796 1.229-6.75-.285-3.712-.649-6.904-.81-7.092-.161-.188-.571 1.837-.91 4.5M.474 128c0 39.325.124 55.412.276 35.75.151-19.662.151-51.838 0-71.5C.598 72.588.474 88.675.474 128M113 63.417c0 5.094.329 6.583 1.455 6.583 3.159 0 2.914-11.71-.267-12.771-.837-.279-1.188 1.55-1.188 6.188M82 91c-1.695 1.695-2.028 3.485-2.185 11.75-.12 6.321-.317 7.815-.561 4.25-.418-6.114-3.05-10-6.773-10-3.786 0-5.481 3.039-5.481 9.829 0 3.447-.441 6.171-1 6.171-.55 0-1-1.955-1-4.345 0-6.843-5.139-10.15-8.443-5.432-2.278 3.251-2.266 27.925.014 30.206 4.162 4.161 10.022-.228 9.24-6.922-.238-2.041.029-3.508.64-3.508.648-.001.916 2.13.702 5.582-.293 4.712.007 5.96 1.924 8.001 2.768 2.946 3.905 3.006 7.239.384 2.136-1.68 2.649-3.03 2.946-7.75.223-3.549.432-1.822.549 4.555.179 9.728.314 10.329 2.541 11.344l2.353 1.072-3.439 10.656c-3.382 10.481-4.414 19.617-3.405 30.157.185 1.925.022 5.302-.362 7.506-.888 5.105.721 6.683 10.104 9.912 3.794 1.305 9.597 3.51 12.897 4.9 13.555 5.709 31.875 7.386 46.399 4.246 4.07-.88 7.624-1.374 7.899-1.099.276.275 1.36 3.047 2.411 6.159 2.334 6.914 7.224 14.608 12.492 19.656l3.945 3.781 13.427-.281 13.427-.28v-79l-3.855.123c-2.12.068-6.434.905-9.588 1.86-5.456 1.652-5.898 1.651-9.137-.024-1.872-.969-6.333-1.962-9.912-2.209-7.768-.535-15.557 1.996-22.536 7.324l-4.46 3.404-3.256-1.985c-4.63-2.823-11.711-2.623-17.943.507-2.737 1.375-5.106 2.5-5.263 2.5-.158 0-.529-1.807-.825-4.015-.296-2.208-1.514-5.886-2.705-8.172l-2.167-4.157 3.133-12.599c2.941-11.827 3.347-12.746 6.627-14.994 1.921-1.317 3.936-3.219 4.476-4.228S124.939 124 126 124c1.762 0 1.955.889 2.215 10.214.275 9.864.375 10.265 2.92 11.691 2.362 1.323 2.905 1.299 5.25-.238 2.531-1.658 2.615-2.034 2.615-11.69 0-5.985.4-9.977 1-9.977.55 0 1 2.405 1 5.345 0 6.683 2.441 9.587 6.78 8.067 2.55-.893 2.738-1.373 3.016-7.682.218-4.96.663-6.73 1.695-6.73.954 0 1.496 1.475 1.704 4.635.385 5.851 3.108 8.242 6.601 5.795 2.096-1.468 2.204-2.238 2.204-15.787 0-14.573-.503-16.643-4.045-16.643-2.544 0-4.955 3.322-4.955 6.829 0 1.744-.45 3.171-1 3.171-.554 0-1-2.642-1-5.927 0-5.203-.32-6.18-2.618-7.987-1.439-1.132-3.127-1.771-3.75-1.42-3.26 1.838-4.64 3.95-4.732 7.239-.055 1.977-.46 4.72-.9 6.095-.529 1.653-.834-.75-.9-7.095-.083-7.944-.415-9.88-1.929-11.25-2.595-2.349-4.71-2.057-7.098.98-1.719 2.185-2.073 4.052-2.073 10.941 0 9.072-1.436 12.121-2.261 4.801-.648-5.752-2.916-8.372-5.727-6.616-1.462.912-2.568.943-4.375.119-1.648-.75-2.991-.781-4.214-.097-1.22.683-2.56.656-4.183-.083-1.722-.785-2.875-.784-4.134.002-.96.599-2.901.869-4.314.599-4.55-.87-6.792 1.188-6.792 6.234 0 2.456-.45 4.465-1 4.465-.596 0-1-3.833-1-9.5 0-8.167-.281-9.781-2-11.5-1.1-1.1-2.45-2-3-2-.55 0-1.9.9-3 2m8.015 36.25c.012 2.466.249 2.888.985 1.75 1.27-1.965 1.27-5 0-5-.55 0-.993 1.463-.985 3.25" fill="#1976D2" fill-rule="evenodd"/></svg>